<?xml version="1.0" encoding="UTF-8"?>
<svg version="1.1" xmlns="http://www.w3.org/2000/svg" width="720" height="720">
<path d="M0 0 C0.72853851 -0.00367669 1.45707701 -0.00735338 2.20769244 -0.01114148 C4.66840125 -0.02222337 7.12906789 -0.02603004 9.58979797 -0.02983093 C11.34733211 -0.03609316 13.10486491 -0.04273974 14.86239624 -0.04974365 C20.65994841 -0.07084917 26.45750098 -0.08116529 32.25508118 -0.09111023 C34.25462673 -0.09515808 36.25417215 -0.09927501 38.25371742 -0.10346031 C47.6659802 -0.12254139 57.07823508 -0.13675537 66.4905135 -0.14507228 C77.31712356 -0.1547979 88.14352659 -0.1809816 98.97006387 -0.22157317 C107.35507353 -0.25191715 115.7400246 -0.2665591 124.12508804 -0.26985329 C129.12255479 -0.27218689 134.11980121 -0.2809209 139.11720848 -0.30631447 C173.12067628 -0.47011265 209.88750653 -0.06049546 236.11836243 25.14717102 C245.80531844 35.57655797 252.00111937 47.60286111 256.11836243 61.14717102 C256.51281555 62.39756165 256.90726868 63.64795227 257.31367493 64.93623352 C264.20200314 88.7154815 260.66313378 114.46963284 249.48945618 136.33467102 C246.37817566 141.9029583 243.01246708 146.82110305 238.65742493 151.48310852 C236.98132047 153.2227907 236.98132047 153.2227907 235.30586243 155.70967102 C223.25239357 169.14067917 203.78258714 175.06194597 187.11836243 180.14717102 C186.78836243 181.79717102 186.45836243 183.44717102 186.11836243 185.14717102 C186.67781555 185.35471008 187.23726868 185.56224915 187.81367493 185.77607727 C209.99288694 194.29831469 226.411448 205.64469463 237.76704407 226.88008118 C238.0901783 227.48330704 238.41331253 228.0865329 238.74623871 228.70803833 C239.53826559 230.18704365 240.32849491 231.66701136 241.11836243 233.14717102 C241.71257018 233.14890727 242.30677793 233.15064352 242.91899198 233.15243238 C278.09951849 233.2553545 313.28002539 233.36344395 348.46051505 233.47828796 C352.68020429 233.49205832 356.89989366 233.5057853 361.11958313 233.51948547 C361.95968357 233.52221378 362.79978401 233.52494208 363.66534204 233.52775306 C377.28639679 233.57188513 390.9074599 233.61249906 404.52852928 233.65182363 C418.49437019 233.69222148 432.46019554 233.73637494 446.42601353 233.78404957 C455.05075764 233.81337214 463.67550051 233.83972935 472.30026484 233.86234999 C478.20638075 233.87812029 484.1124776 233.89752284 490.01857238 233.91983943 C493.43126939 233.93262548 496.84395163 233.94375482 500.25666618 233.95059013 C503.94789763 233.95881406 507.63905596 233.97307998 511.33026123 233.98895264 C512.42070486 233.98993074 513.51114849 233.99090885 514.63463587 233.9919166 C515.61546107 233.99739104 516.59628628 234.00286548 517.60683346 234.00850582 C518.88668083 234.01249288 518.88668083 234.01249288 520.19238371 234.01656049 C522.11836243 234.14717102 522.11836243 234.14717102 523.11836243 235.14717102 C523.24206431 236.94239324 523.29633091 238.7424311 523.32368469 240.54170227 C523.35358742 242.28887794 523.35358742 242.28887794 523.38409424 244.0713501 C523.40917809 245.99606895 523.40917809 245.99606895 523.43476868 247.95967102 C523.45550482 249.30562875 523.47659455 250.65158108 523.49801636 251.99752808 C523.55420348 255.62784863 523.60354686 259.25823146 523.65099335 262.88867569 C523.68074137 265.13801739 523.71213366 267.38733033 523.74403381 269.63664246 C524.02652007 289.66054771 524.22015747 309.68360251 524.24336243 329.70967102 C524.24595062 330.76049866 524.24853882 331.81132629 524.25120544 332.89399719 C524.25694777 335.8130605 524.2555623 338.73201375 524.25117493 341.65107727 C524.25315384 342.50826859 524.25513275 343.3654599 524.25717163 344.24862671 C524.23384781 350.03168563 524.23384781 350.03168563 523.11836243 351.14717102 C521.30586243 351.27998352 521.30586243 351.27998352 519.11836243 351.27217102 C518.39648743 351.27474915 517.67461243 351.27732727 516.93086243 351.27998352 C515.11836243 351.14717102 515.11836243 351.14717102 514.11836243 350.14717102 C513.12021277 343.84498523 512.89117013 337.57906602 512.68086243 331.20967102 C512.29332503 321.44046676 511.67130329 311.80487624 510.11836243 302.14717102 C510.00154114 301.41691711 509.88471985 300.68666321 509.76435852 299.9342804 C507.17999129 284.6579445 501.87151372 268.74969205 489.36054993 258.74092102 C487.34095066 257.35508721 485.31091889 256.23974561 483.11836243 255.14717102 C482.25211243 254.71533508 481.38586243 254.28349915 480.49336243 253.83857727 C461.27936951 245.40743715 437.67121168 246.14717102 417.11836243 246.14717102 C416.78836243 364.61717102 416.45836243 483.08717102 416.11836243 605.14717102 C427.99836243 605.14717102 439.87836243 605.14717102 452.11836243 605.14717102 C453.10836243 605.80717102 454.09836243 606.46717102 455.11836243 607.14717102 C455.11836243 610.11717102 455.11836243 613.08717102 455.11836243 616.14717102 C405.94836243 616.14717102 356.77836243 616.14717102 306.11836243 616.14717102 C306.11836243 607.14717102 306.11836243 607.14717102 307.11836243 605.14717102 C319.65836243 604.81717102 332.19836243 604.48717102 345.11836243 604.14717102 C345.11836243 486.00717102 345.11836243 367.86717102 345.11836243 246.14717102 C330.17310332 246.0196321 330.17310332 246.0196321 315.36836243 246.95967102 C314.49768127 247.04950256 313.62700012 247.13933411 312.72993469 247.23188782 C293.70913902 249.31187734 276.59870913 253.48162402 263.81758118 268.70576477 C256.85078609 278.71552783 252.74761441 289.03827061 252.86836243 301.20967102 C252.87440491 302.19902649 252.88044739 303.18838196 252.88667297 304.2077179 C251.88441708 338.3369764 251.88441708 338.3369764 265.11836243 368.14717102 C269.43973561 371.76352171 273.02147806 372.41741209 278.50898743 372.38154602 C282.34619412 372.03688674 285.87660788 370.96035667 289.54023743 369.80342102 C292.17336179 369.13317118 294.41381789 369.03042809 297.11836243 369.14717102 C300.15010846 374.48304404 300.15010846 374.48304404 300.02070618 377.19013977 C298.30768306 380.9053977 294.4381696 381.58719168 290.81367493 382.97529602 C270.99275278 389.26100072 245.09681449 390.42212421 226.11836243 381.14717102 C225.15414368 380.72564758 224.18992493 380.30412415 223.19648743 379.86982727 C209.59492576 373.63865498 199.99180366 363.70137625 194.36836243 349.83467102 C187.34935737 330.06217966 186.03039893 308.77263607 184.52610779 287.99693298 C183.45380511 273.51378927 182.26859958 259.17098869 179.18086243 244.95967102 C178.95229553 243.90699036 178.72372864 242.85430969 178.48823547 241.76972961 C174.7424043 226.05192822 167.57778327 211.67756932 154.11836243 202.14717102 C146.16757197 197.4652482 138.15805005 194.1387272 129.11836243 192.14717102 C128.39648743 191.95510071 127.67461243 191.7630304 126.93086243 191.56513977 C114.32115859 188.343175 100.9764279 189.14717102 88.11836243 189.14717102 C88.11836243 248.87717102 88.11836243 308.60717102 88.11836243 370.14717102 C104.45336243 370.64217102 104.45336243 370.64217102 121.11836243 371.14717102 C122.11836243 372.14717102 122.11836243 372.14717102 122.25117493 374.14326477 C122.2485968 374.94892883 122.24601868 375.7545929 122.24336243 376.58467102 C122.24594055 377.38775696 122.24851868 378.1908429 122.25117493 379.01826477 C122.11836243 381.14717102 122.11836243 381.14717102 121.11836243 383.14717102 C104.44650791 383.17049984 87.77465866 383.18815011 71.10279179 383.19898319 C63.36228961 383.20414619 55.62179756 383.21118895 47.88130188 383.22261047 C41.13709092 383.23255721 34.39288728 383.23902442 27.64866918 383.24125952 C24.07549377 383.24256664 20.50233932 383.2456526 16.92917061 383.25290108 C12.94673892 383.26091474 8.96432802 383.26116217 4.98188782 383.26069641 C3.78858856 383.26429169 2.59528931 383.26788696 1.36582947 383.27159119 C0.28744308 383.27021652 -0.7909433 383.26884186 -1.90200806 383.26742554 C-2.84500228 383.26834733 -3.7879965 383.26926912 -4.75956631 383.27021885 C-6.88163757 383.14717102 -6.88163757 383.14717102 -7.88163757 382.14717102 C-7.97987694 380.48288051 -8.01137388 378.81435171 -8.00663757 377.14717102 C-8.01050476 375.78592102 -8.01050476 375.78592102 -8.01445007 374.39717102 C-7.88163757 372.14717102 -7.88163757 372.14717102 -6.88163757 371.14717102 C2.35836243 370.81717102 11.59836243 370.48717102 21.11836243 370.14717102 C21.11836243 252.00717102 21.11836243 133.86717102 21.11836243 12.14717102 C7.25836243 11.65217102 7.25836243 11.65217102 -6.88163757 11.14717102 C-7.88163757 10.14717102 -7.88163757 10.14717102 -8.01445007 8.11592102 C-8.01187195 7.30123352 -8.00929382 6.48654602 -8.00663757 5.64717102 C-8.0092157 4.83248352 -8.01179382 4.01779602 -8.01445007 3.17842102 C-7.71624299 -1.38239319 -3.73920052 0.01217353 0 0 Z M87.11836243 12.14717102 C87.01928054 14.25847112 86.99203891 16.37314699 86.99137878 18.48677063 C86.98981879 19.15662208 86.9882588 19.82647352 86.98665154 20.5166235 C86.98263961 22.77760915 86.98583191 25.03852853 86.9889679 27.29951477 C86.98761394 28.91378316 86.98583404 30.52805124 86.98365784 32.14231873 C86.97908283 36.53888831 86.98087334 40.93543453 86.98403692 45.33200455 C86.98656018 49.9226564 86.98422308 54.5133062 86.98265076 59.10395813 C86.98082896 66.81465516 86.98323564 74.52534263 86.98799133 82.23603821 C86.99343397 91.16388814 86.99167132 100.09171525 86.98616493 109.01956463 C86.98163409 116.67049449 86.98098311 124.32141745 86.9836036 131.97234821 C86.98516653 136.54819424 86.98535969 141.12402953 86.98206711 145.69987488 C86.97918881 150.00076751 86.98116331 154.30163057 86.98696136 158.60251999 C86.98828919 160.18563157 86.98789447 161.76874562 86.9856987 163.35185623 C86.98298805 165.50379546 86.98636723 167.6556384 86.99137878 169.80757141 C86.99175581 171.01474319 86.99213284 172.22191498 86.99252129 173.46566772 C86.81304562 176.06624816 86.81304562 176.06624816 88.11836243 177.14717102 C104.58411964 178.23727001 121.29392716 178.09637711 137.11836243 173.14717102 C138.35070618 172.79654602 139.58304993 172.44592102 140.85273743 172.08467102 C158.79731562 166.44270757 171.57159177 153.99564774 181.11836243 138.14717102 C181.60304993 137.34666321 182.08773743 136.5461554 182.58711243 135.72138977 C188.07523093 125.76580896 190.7258292 113.46236793 191.11836243 102.14717102 C191.17830383 100.50941711 191.17830383 100.50941711 191.23945618 98.83857727 C191.68864547 73.86893729 187.43700214 48.88085886 169.50508118 30.26045227 C165.38720663 26.61434731 160.90654882 23.82482248 156.11836243 21.14717102 C155.47512024 20.75916321 154.83187805 20.3711554 154.16914368 19.97138977 C139.81394197 11.90631983 121.62769996 10.79913129 105.52070618 10.94136047 C103.32918547 10.96000431 101.13808037 10.96186679 98.94648743 10.96162415 C92.54393718 10.33485167 92.54393718 10.33485167 87.11836243 12.14717102 Z " fill="#020202" transform="translate(101.88163757324219,51.85282897949219)"/>
<path d="M0 0 C0.99 0.33 1.98 0.66 3 1 C2.67 119.8 2.34 238.6 2 361 C13.88 361 25.76 361 38 361 C38.33 361.66 38.66 362.32 39 363 C26.13 363 13.26 363 0 363 C0 243.21 0 123.42 0 0 Z " fill="#838383" transform="translate(516,296)"/>
<path d="M0 0 C10.23 0 20.46 0 31 0 C31 119.79 31 239.58 31 363 C30.01 362.67 29.02 362.34 28 362 C28 243.53 28 125.06 28 3 C14.14 2.505 14.14 2.505 0 2 C0 1.34 0 0.68 0 0 Z " fill="#9F9F9F" transform="translate(95,61)"/>
<path d="M0 0 C0.66 0 1.32 0 2 0 C2 119.46 2 238.92 2 362 C-11.2 362 -24.4 362 -38 362 C-38 361.34 -38 360.68 -38 360 C-19.19 359.505 -19.19 359.505 0 359 C0 240.53 0 122.06 0 0 Z " fill="#A9A9A9" transform="translate(447,297)"/>
<path d="M0 0 C9.57 0.33 19.14 0.66 29 1 C28.67 1.66 28.34 2.32 28 3 C18.43 3 8.86 3 -1 3 C-0.67 2.01 -0.34 1.02 0 0 Z " fill="#7B7B7B" transform="translate(189,228)"/>
<path d="M0 0 C9.57 0 19.14 0 29 0 C29.33 0.66 29.66 1.32 30 2 C20.43 2.33 10.86 2.66 1 3 C0.67 2.01 0.34 1.02 0 0 Z " fill="#717171" transform="translate(188,61)"/>
<path d="M0 0 C3.43595166 1.52708963 6.11912454 3.59927045 9 6 C8.67 6.66 8.34 7.32 8 8 C3.96615872 5.92856799 2.07143201 4.03384128 0 0 Z " fill="#3B3B3B" transform="translate(329,71)"/>
<path d="M0 0 C1.32 0.33 2.64 0.66 4 1 C3.67 2.65 3.34 4.3 3 6 C2.01 6.33 1.02 6.66 0 7 C0 4.69 0 2.38 0 0 Z " fill="#ABABAB" transform="translate(285,231)"/>
</svg>
