<?xml version="1.0" encoding="UTF-8"?>
<svg version="1.1" xmlns="http://www.w3.org/2000/svg" width="168" height="188">
<path d="M0 0 C2.375 1.1875 2.375 1.1875 3.375 3.1875 C3.46027628 5.21982634 3.48216135 7.25497006 3.47265625 9.2890625 C3.46943359 10.50078125 3.46621094 11.7125 3.46289062 12.9609375 C3.45451172 14.23195313 3.44613281 15.50296875 3.4375 16.8125 C3.43298828 18.09125 3.42847656 19.37 3.42382812 20.6875 C3.41201203 23.85421292 3.39553815 27.02083356 3.375 30.1875 C4.0455542 29.84380371 4.7161084 29.50010742 5.40698242 29.14599609 C8.44974284 27.59948976 11.50560482 26.08086185 14.5625 24.5625 C15.61759766 24.02109375 16.67269531 23.4796875 17.75976562 22.921875 C18.78134766 22.41914062 19.80292969 21.91640625 20.85546875 21.3984375 C22.26155396 20.69146729 22.26155396 20.69146729 23.69604492 19.97021484 C27.024006 18.99787882 28.37701388 19.56423723 31.375 21.1875 C32.375 22.1875 32.375 22.1875 32.75 24.5 C32.375 27.1875 32.375 27.1875 30.30078125 29.12109375 C27.07271319 31.40099763 23.7300592 33.21249207 20.1875 34.9375 C19.55908203 35.25332031 18.93066406 35.56914062 18.28320312 35.89453125 C13.64267113 38.1875 13.64267113 38.1875 11.375 38.1875 C13.5118571 40.51111324 15.54976825 41.97293415 18.3515625 43.4140625 C19.104375 43.8059375 19.8571875 44.1978125 20.6328125 44.6015625 C21.41398437 45.00117188 22.19515625 45.40078125 23 45.8125 C24.55547925 46.61565595 26.11020832 47.42026703 27.6640625 48.2265625 C28.35193848 48.57928223 29.03981445 48.93200195 29.74853516 49.29541016 C31.375 50.1875 31.375 50.1875 32.375 51.1875 C32.5625 54.125 32.5625 54.125 32.375 57.1875 C30.375 59.1875 30.375 59.1875 27.69238281 59.51098633 C23.75405844 59.12695043 20.76111992 57.7953861 17.296875 56.01171875 C16.31790253 55.52298027 16.31790253 55.52298027 15.31915283 55.02436829 C13.94814726 54.33653525 12.58007282 53.64283178 11.21484375 52.94360352 C9.12455855 51.87477427 7.0243494 50.82781488 4.921875 49.78320312 C3.587902 49.11064223 2.25454601 48.43685585 0.921875 47.76171875 C0.29480652 47.44909592 -0.33226196 47.13647308 -0.97833252 46.81437683 C-4.13791983 45.18275569 -5.60604457 44.21593314 -7.625 41.1875 C-7.82118734 38.32094391 -7.90501722 35.55391492 -7.890625 32.6875 C-7.89253845 31.85541016 -7.8944519 31.02332031 -7.89642334 30.16601562 C-7.89778374 28.40754901 -7.89409738 26.6490723 -7.88574219 24.890625 C-7.87504048 22.19768738 -7.88564221 19.50541686 -7.8984375 16.8125 C-7.89711588 15.10416519 -7.89455343 13.3958308 -7.890625 11.6875 C-7.89467346 10.88119141 -7.89872192 10.07488281 -7.90289307 9.24414062 C-7.8703892 5.37275308 -7.82189049 3.48283574 -5.625 0.1875 C-2.625 -0.8125 -2.625 -0.8125 0 0 Z " fill="#181818" transform="translate(7.625,103.8125)"/>
<path d="M0 0 C3.33325195 1.36694336 3.33325195 1.36694336 6.73828125 3.08984375 C7.64854317 3.54672325 7.64854317 3.54672325 8.57719421 4.01283264 C9.84755021 4.65284768 11.11550718 5.29764522 12.38110352 5.94702148 C14.31966309 6.94117345 16.26541547 7.91993147 18.21289062 8.89648438 C27.68779358 13.68779358 27.68779358 13.68779358 30 16 C30.22462781 18.97773423 30.32818178 21.85966552 30.3359375 24.83984375 C30.3425943 25.71774063 30.3492511 26.59563751 30.35610962 27.50013733 C30.36624428 29.35871278 30.37092639 31.21732468 30.37060547 33.07592773 C30.37497769 35.92297185 30.41128481 38.76846487 30.44921875 41.61523438 C30.45508689 43.41926552 30.4590563 45.22330404 30.4609375 47.02734375 C30.47530853 47.88053696 30.48967957 48.73373016 30.50448608 49.61277771 C30.45900113 55.48312795 30.45900113 55.48312795 28.13525391 58.09985352 C26 59 26 59 23.375 58.375 C21 57 21 57 19 54 C18.77294922 51.36450195 18.77294922 51.36450195 18.8046875 48.23828125 C18.81113281 47.12001953 18.81757813 46.00175781 18.82421875 44.84960938 C18.84097656 43.68236328 18.85773438 42.51511719 18.875 41.3125 C18.88402344 40.13365234 18.89304688 38.95480469 18.90234375 37.74023438 C18.92593577 34.82661974 18.9588546 31.91341108 19 29 C18.35973877 29.3081665 17.71947754 29.61633301 17.05981445 29.93383789 C14.15060657 31.32430493 11.23187913 32.6935256 8.3125 34.0625 C7.30509766 34.54783203 6.29769531 35.03316406 5.25976562 35.53320312 C4.28330078 35.98759766 3.30683594 36.44199219 2.30078125 36.91015625 C1.40528564 37.33433838 0.50979004 37.75852051 -0.4128418 38.19555664 C-3.4210539 39.13092126 -5.02870016 38.97883693 -8 38 C-10 36 -10 36 -10.625 33.6875 C-9.88481928 30.50472291 -9.4048693 30.26998855 -6.75 28.5625 C-5.18215079 27.6802336 -3.59629742 26.8296865 -2 26 C-0.96617187 25.45601562 0.06765625 24.91203125 1.1328125 24.3515625 C9.61120892 20 9.61120892 20 12 20 C12 19.34 12 18.68 12 18 C11.17113281 17.75378906 10.34226563 17.50757812 9.48828125 17.25390625 C5.49109709 15.81706849 1.90841127 13.96675795 -1.8125 11.9375 C-2.49248047 11.57333984 -3.17246094 11.20917969 -3.87304688 10.83398438 C-8.8510721 8.1489279 -8.8510721 8.1489279 -10 7 C-9.6875 3.5 -9.6875 3.5 -9 0 C-5.84248144 -1.57875928 -3.40479303 -0.67771782 0 0 Z " fill="#171718" transform="translate(138,26)"/>
<path d="M0 0 C4.875 1.875 4.875 1.875 6 3 C6.36506829 8.62612858 6.44239059 14.25396067 6.51489258 19.890625 C6.54651728 21.79005306 6.5942566 23.68928413 6.65844727 25.58789062 C6.74976286 28.32497427 6.78851136 31.05849765 6.81640625 33.796875 C6.85455948 34.64288269 6.89271271 35.48889038 6.93202209 36.36053467 C6.92395751 38.81123937 6.81664741 40.68673001 6 43 C3.61713968 45.29522764 0.98083073 46.61282772 -2 48 C-2.99531738 48.55083252 -3.99063477 49.10166504 -5.01611328 49.66918945 C-8.04617342 51.22959392 -11.08256701 52.77635132 -14.125 54.3125 C-15.18332031 54.86228516 -16.24164063 55.41207031 -17.33203125 55.97851562 C-18.35941406 56.49736328 -19.38679687 57.01621094 -20.4453125 57.55078125 C-21.36844238 58.02169189 -22.29157227 58.49260254 -23.24267578 58.9777832 C-26.38051976 60.14106926 -28.6788195 60.33246832 -32 60 C-34 58 -34 58 -34.625 55.1875 C-34 52 -34 52 -32.6328125 50.70703125 C-27.52462099 47.43227777 -21.91528826 44.92852847 -16.44140625 42.33203125 C-13.88014201 41.23609441 -13.88014201 41.23609441 -13 39 C-13.83917969 38.75378906 -14.67835938 38.50757813 -15.54296875 38.25390625 C-19.42016493 36.8476012 -22.7688412 35.02047084 -26.3125 32.9375 C-27.26092773 32.39125977 -27.26092773 32.39125977 -28.22851562 31.83398438 C-32.83996333 29.16003667 -32.83996333 29.16003667 -34 28 C-34.3125 25.625 -34.3125 25.625 -34 23 C-32.3125 21.125 -32.3125 21.125 -30 20 C-26.32620248 20.45026725 -23.41740413 21.61306499 -20.13671875 23.28515625 C-18.80737305 23.95708008 -18.80737305 23.95708008 -17.45117188 24.64257812 C-16.53916016 25.11115234 -15.62714844 25.57972656 -14.6875 26.0625 C-13.75615234 26.53494141 -12.82480469 27.00738281 -11.86523438 27.49414062 C-9.57401231 28.65737644 -7.2857876 29.82613132 -5 31 C-5.02618408 30.23856689 -5.05236816 29.47713379 -5.0793457 28.69262695 C-5.18347015 25.23279565 -5.24837729 21.77329415 -5.3125 18.3125 C-5.35439453 17.11431641 -5.39628906 15.91613281 -5.43945312 14.68164062 C-5.5608921 5.96232198 -5.5608921 5.96232198 -3.86474609 3.05224609 C-2.48046875 1.66796875 -2.48046875 1.66796875 0 0 Z " fill="#171717" transform="translate(162,103)"/>
<path d="M0 0 C2.33944736 0.28730055 4.6739143 0.61936779 7 1 C7.495 4.465 7.495 4.465 8 8 C2.33422167 11.70454737 -3.44150704 14.76637193 -9.55859375 17.66796875 C-12.11985799 18.76390559 -12.11985799 18.76390559 -13 21 C-12.33484375 21.24621094 -11.6696875 21.49242188 -10.984375 21.74609375 C-7.27910157 23.30289057 -3.78611787 25.15817448 -0.25 27.0625 C0.43449219 27.42666016 1.11898437 27.79082031 1.82421875 28.16601562 C6.86732076 30.86732076 6.86732076 30.86732076 8 32 C8.29431219 34.7959658 8.33772308 36.43712819 6.875 38.875 C3.99052189 40.60568686 2.24505867 39.77333781 -1 39 C-3.96540956 37.82637009 -6.82172996 36.45953199 -9.6875 35.0625 C-10.44611328 34.70220703 -11.20472656 34.34191406 -11.98632812 33.97070312 C-15.15623337 32.45149876 -18.06621603 30.95585598 -21 29 C-20.98952637 29.80219971 -20.97905273 30.60439941 -20.96826172 31.4309082 C-20.92674233 35.05807372 -20.90068657 38.68518928 -20.875 42.3125 C-20.84986328 44.20645508 -20.84986328 44.20645508 -20.82421875 46.13867188 C-20.81777344 47.34716797 -20.81132812 48.55566406 -20.8046875 49.80078125 C-20.79421387 50.91622314 -20.78374023 52.03166504 -20.77294922 53.1809082 C-21 56 -21 56 -23 59 C-25.8787465 60.06059082 -27.30415167 60.31005433 -30.13085938 59.05053711 C-33.02554819 55.87492434 -32.57132597 52.3999931 -32.53125 48.31640625 C-32.5350769 47.46449203 -32.53890381 46.61257782 -32.54284668 45.73484802 C-32.54556803 43.93349018 -32.53819118 42.13209297 -32.52148438 40.33081055 C-32.50010292 37.57576102 -32.52126343 34.82332696 -32.546875 32.06835938 C-32.54423124 30.31770258 -32.53910528 28.56704742 -32.53125 26.81640625 C-32.53934692 25.99338516 -32.54744385 25.17036407 -32.55578613 24.32240295 C-32.49691614 20.72341065 -32.45326373 18.64906019 -30.3581543 15.64892578 C-27.58273107 13.70822711 -24.80673443 12.23881774 -21.73828125 10.80078125 C-21.1470195 10.52026413 -20.55575775 10.23974701 -19.94657898 9.95072937 C-18.07224783 9.06321593 -16.19273094 8.18743509 -14.3125 7.3125 C-12.42268853 6.42463204 -10.53403726 5.53437517 -8.64628601 4.64213562 C-6.94245648 3.83814202 -5.23557988 3.04061528 -3.52856445 2.2434082 C-1.12056243 1.22806469 -1.12056243 1.22806469 0 0 Z " fill="#171717" transform="translate(32,25)"/>
<path d="M0 0 C2.36008817 3.54013225 2.23463644 5.01121955 2.1953125 9.19921875 C2.18886719 10.40771484 2.18242188 11.61621094 2.17578125 12.86132812 C2.15902344 14.12396484 2.14226562 15.38660156 2.125 16.6875 C2.11597656 17.96173828 2.10695312 19.23597656 2.09765625 20.54882812 C2.07405641 23.69940627 2.04113194 26.84960983 2 30 C9.42744592 26.68351099 9.42744592 26.68351099 16.7421875 23.12890625 C17.77601562 22.61199219 18.80984375 22.09507812 19.875 21.5625 C20.92429688 21.02753906 21.97359375 20.49257812 23.0546875 19.94140625 C26 19 26 19 28.83203125 19.64453125 C31 21 31 21 31.8125 24.125 C31.874375 25.07375 31.93625 26.0225 32 27 C26.81319243 31.40164033 21.02519129 34.30216838 14.98950195 37.33813477 C13.06335739 38.31206647 11.15020081 39.3088557 9.23632812 40.30664062 C8.00333402 40.93113061 6.76963239 41.55422604 5.53515625 42.17578125 C4.425354 42.74208252 3.31555176 43.30838379 2.17211914 43.8918457 C-2.6636793 45.58119298 -5.5820097 44.59796985 -10.20385742 42.64892578 C-11.32638916 42.0867334 -12.4489209 41.52454102 -13.60546875 40.9453125 C-14.2113533 40.64309784 -14.81723785 40.34088318 -15.44148254 40.0295105 C-16.71317362 39.39283957 -17.98290466 38.7522399 -19.25073242 38.10791016 C-21.18737818 37.12506182 -23.13109549 36.15744368 -25.07617188 35.19140625 C-35.95997212 29.72212721 -35.95997212 29.72212721 -38 27 C-38 23.9375 -38 23.9375 -37 21 C-34.79614258 19.67822266 -34.79614258 19.67822266 -32 19 C-29.22924805 19.78271484 -29.22924805 19.78271484 -26.26171875 21.2109375 C-25.19501953 21.71367187 -24.12832031 22.21640625 -23.02929688 22.734375 C-21.92650391 23.27578125 -20.82371094 23.8171875 -19.6875 24.375 C-18.56537109 24.90867188 -17.44324219 25.44234375 -16.28710938 25.9921875 C-13.51677492 27.31251711 -10.75535942 28.64876845 -8 30 C-8.01571045 29.19780029 -8.0314209 28.39560059 -8.04760742 27.5690918 C-8.10988583 23.94196596 -8.14896864 20.31495251 -8.1875 16.6875 C-8.21263672 15.42486328 -8.23777344 14.16222656 -8.26367188 12.86132812 C-8.27333984 11.65283203 -8.28300781 10.44433594 -8.29296875 9.19921875 C-8.3086792 8.08377686 -8.32438965 6.96833496 -8.34057617 5.8190918 C-8 3 -8 3 -6.6418457 1.13598633 C-4.30702109 -0.47946927 -2.76915387 -0.42602367 0 0 Z " fill="#131313" transform="translate(87,143)"/>
<path d="M0 0 C3.57360138 0.90401755 6.53499086 2.21997533 9.83081055 3.87060547 C10.4366951 4.17282013 11.04257965 4.47503479 11.66682434 4.78640747 C12.93851541 5.4230784 14.20824645 6.06367807 15.47607422 6.70800781 C17.41271998 7.69085615 19.35643728 8.65847428 21.30151367 9.62451172 C32.18531392 15.09379076 32.18531392 15.09379076 34.2253418 17.81591797 C34.2253418 20.87841797 34.2253418 20.87841797 33.2253418 23.81591797 C31.02148438 25.13769531 31.02148438 25.13769531 28.2253418 25.81591797 C25.45458984 25.03320313 25.45458984 25.03320313 22.48706055 23.60498047 C21.42036133 23.10224609 20.35366211 22.59951172 19.25463867 22.08154297 C17.60044922 21.26943359 17.60044922 21.26943359 15.9128418 20.44091797 C14.79071289 19.90724609 13.66858398 19.37357422 12.51245117 18.82373047 C9.74211672 17.50340086 6.98070121 16.16714952 4.2253418 14.81591797 C4.24105225 16.07251221 4.24105225 16.07251221 4.25708008 17.35449219 C4.29114198 20.45929961 4.31623091 23.56401189 4.33520508 26.66894531 C4.35022287 28.67503157 4.3756316 30.68103121 4.40112305 32.68701172 C4.41079102 34.57226562 4.41079102 34.57226562 4.4206543 36.49560547 C4.43636475 38.23946533 4.43636475 38.23946533 4.45239258 40.01855469 C4.2253418 42.81591797 4.2253418 42.81591797 2.2253418 44.81591797 C-0.7746582 45.06591797 -0.7746582 45.06591797 -3.7746582 44.81591797 C-5.7746582 42.81591797 -5.7746582 42.81591797 -6.00170898 40.01855469 C-5.99123535 38.85598145 -5.98076172 37.6934082 -5.9699707 36.49560547 C-5.96352539 35.23876953 -5.95708008 33.98193359 -5.95043945 32.68701172 C-5.93368164 31.36830078 -5.91692383 30.04958984 -5.8996582 28.69091797 C-5.88962803 27.35108076 -5.88050224 26.01123645 -5.87231445 24.67138672 C-5.84867895 21.38605224 -5.81573054 18.10107332 -5.7746582 14.81591797 C-6.82592896 15.3314624 -6.82592896 15.3314624 -7.8984375 15.85742188 C-11.07771427 17.40378421 -14.269447 18.92250046 -17.4621582 20.44091797 C-18.56495117 20.98232422 -19.66774414 21.52373047 -20.80395508 22.08154297 C-21.8706543 22.58427734 -22.93735352 23.08701172 -24.03637695 23.60498047 C-25.50530396 24.31195068 -25.50530396 24.31195068 -27.00390625 25.03320312 C-29.7746582 25.81591797 -29.7746582 25.81591797 -32.56298828 25.09863281 C-34.7746582 23.81591797 -34.7746582 23.81591797 -35.8996582 21.50341797 C-35.75346312 18.36022376 -34.91238838 17.34743165 -32.67358398 15.22290039 C-28.27517371 11.96395999 -23.10353549 9.90034922 -18.1496582 7.62841797 C-15.88579215 6.5742416 -13.62273266 5.51833091 -11.3605957 4.46044922 C-10.3607666 4.00001221 -9.3609375 3.5395752 -8.33081055 3.06518555 C-1.81296456 -0.12027939 -1.81296456 -0.12027939 0 0 Z " fill="#131314" transform="translate(84.774658203125,0.18408203125)"/>
<path d="M0 0 C3.7645294 1.16033612 7.12266618 2.86644079 10.61328125 4.67578125 C11.28681641 5.01931641 11.96035156 5.36285156 12.65429688 5.71679688 C13.32783203 6.06033203 14.00136719 6.40386719 14.6953125 6.7578125 C15.37158691 7.10021973 16.04786133 7.44262695 16.74462891 7.79541016 C18.13936806 8.51977362 19.51927366 9.27329508 20.88427734 10.05224609 C24.08828175 11.82378242 26.13062368 12.86586209 29.84375 12.8515625 C33.49999265 11.62959501 36.77354169 9.94461104 40.11328125 8.05078125 C41.43905419 7.3249019 42.76587463 6.60093237 44.09375 5.87890625 C44.72974121 5.53150391 45.36573242 5.18410156 46.02099609 4.82617188 C55.31143402 -0.20009523 55.31143402 -0.20009523 59.73828125 -0.01171875 C61.80078125 0.86328125 61.80078125 0.86328125 63.80078125 2.86328125 C64.42578125 5.17578125 64.42578125 5.17578125 63.80078125 7.86328125 C61.14238936 9.91245833 58.76528282 11.32765301 55.80078125 12.86328125 C55.18944336 13.18264648 54.57810547 13.50201172 53.94824219 13.83105469 C50.51609829 15.61563744 47.07033682 17.37353401 43.60546875 19.09375 C43.01749512 19.38660889 42.42952148 19.67946777 41.82373047 19.98120117 C39.20450765 21.12327841 36.5191239 21.98800087 33.80078125 22.86328125 C33.8164917 23.76159668 33.83220215 24.65991211 33.84838867 25.58544922 C33.8994738 28.91395817 33.9371091 32.24205152 33.96557617 35.57080078 C33.98067608 37.01227383 34.00115783 38.45370084 34.02709961 39.89501953 C34.06343255 41.96528468 34.08049454 44.03494332 34.09375 46.10546875 C34.10946045 47.35183105 34.1251709 48.59819336 34.14135742 49.88232422 C34.02896729 50.86604004 33.91657715 51.84975586 33.80078125 52.86328125 C30.80078125 54.86328125 30.80078125 54.86328125 27.67578125 54.61328125 C26.72703125 54.36578125 25.77828125 54.11828125 24.80078125 53.86328125 C23.36568904 50.99309684 23.68919619 48.52784402 23.703125 45.32421875 C23.70634766 44.02226563 23.70957031 42.7203125 23.71289062 41.37890625 C23.72124659 39.99869726 23.72971154 38.61848893 23.73828125 37.23828125 C23.74329624 35.85026199 23.74785915 34.46224103 23.75195312 33.07421875 C23.76377149 29.67052993 23.78024691 26.26692686 23.80078125 22.86328125 C22.92067383 22.58476318 22.04056641 22.30624512 21.13378906 22.01928711 C16.05475501 20.25769714 11.3541381 17.82433249 6.55078125 15.42578125 C5.5453125 14.93529297 4.53984375 14.44480469 3.50390625 13.93945312 C2.54484375 13.46185547 1.58578125 12.98425781 0.59765625 12.4921875 C-0.27536133 12.0597876 -1.14837891 11.6273877 -2.04785156 11.18188477 C-4.19921875 9.86328125 -4.19921875 9.86328125 -6.19921875 6.86328125 C-6.01171875 4.30078125 -6.01171875 4.30078125 -5.19921875 1.86328125 C-2.19921875 -0.13671875 -2.19921875 -0.13671875 0 0 Z " fill="#111111" transform="translate(55.19921875,64.13671875)"/>
<path d="M0 0 C0.99 0.33 1.98 0.66 3 1 C2.0409375 1.5878125 2.0409375 1.5878125 1.0625 2.1875 C-1.43778819 4.38472296 -1.64950425 5.75791433 -2 9 C-2.66 8.34 -3.32 7.68 -4 7 C-3.8125 4.5 -3.8125 4.5 -3 2 C-2.01 1.34 -1.02 0.68 0 0 Z " fill="#585859" transform="translate(53,64)"/>
<path d="M0 0 C0.99 0.33 1.98 0.66 3 1 C2.21625 1.598125 1.4325 2.19625 0.625 2.8125 C-2.14574323 4.91085249 -2.14574323 4.91085249 -4 8 C-4.25 5.6875 -4.25 5.6875 -4 3 C-2.1875 1.125 -2.1875 1.125 0 0 Z " fill="#585859" transform="translate(132,123)"/>
</svg>
